HIERARCHY
ROOT Hips
{
	OFFSET -3.958830 18.904000 13.208200
	CHANNELS 6 Xposition Yposition Zposition Zrotation Yrotation Xrotation 
	JOINT LHipJoint
	{
		OFFSET 0.000000 0.000000 0.000000
		CHANNELS 3 Zrotation Yrotation Xrotation
		JOINT LeftUpLeg
		{
			OFFSET 1.800000 -1.400000 0.085000
			CHANNELS 3 Zrotation Yrotation Xrotation
			JOINT LeftLeg
			{
				OFFSET 2.215000 -6.000000 0.000000
				CHANNELS 3 Zrotation Yrotation Xrotation
				JOINT LeftFoot
				{
					OFFSET 2.500000 -6.900000 0.000000
					CHANNELS 3 Zrotation Yrotation Xrotation
					JOINT LeftToeBase
					{
						OFFSET 0.200000 -0.500000 1.950000
						CHANNELS 3 Zrotation Yrotation Xrotation
						End Site
						{
							OFFSET 0.000000 0.000000 0.000000
						}
					}
				}
			}
		}
	}
	JOINT RHipJoint
	{
		OFFSET 0.000000 0.000000 0.000000
		CHANNELS 3 Zrotation Yrotation Xrotation
		JOINT RightUpLeg
		{
			OFFSET -1.800000 -1.400000 0.085000
			CHANNELS 3 Zrotation Yrotation Xrotation
			JOINT RightLeg
			{
				OFFSET -2.215000 -6.000000 0.000000
				CHANNELS 3 Zrotation Yrotation Xrotation
				JOINT RightFoot
				{
					OFFSET -2.500000 -6.900000 0.000000
					CHANNELS 3 Zrotation Yrotation Xrotation
					JOINT RightToeBase
					{
						OFFSET -0.200000 -0.500000 1.950000
						CHANNELS 3 Zrotation Yrotation Xrotation
						End Site
						{
							OFFSET 0.000000 0.000000 0.000000
						}
					}
				}
			}
		}
	}
	JOINT LowerBack
	{
		OFFSET 0.000000 0.000000 0.000000
		CHANNELS 3 Zrotation Yrotation Xrotation
		JOINT Spine
		{
			OFFSET -0.087000 1.940000 -0.288900
			CHANNELS 3 Zrotation Yrotation Xrotation
			JOINT Spine1
			{
				OFFSET 0.000000 1.950000 0.060000
				CHANNELS 3 Zrotation Yrotation Xrotation
				JOINT Neck
				{
					OFFSET 0.000000 0.000000 0.000000
					CHANNELS 3 Zrotation Yrotation Xrotation
					JOINT Neck1
					{
						OFFSET 0.000000 1.600000 0.340000
						CHANNELS 3 Zrotation Yrotation Xrotation
						JOINT Head
						{
							OFFSET 0.000000 1.667000 -0.240000
							CHANNELS 3 Zrotation Yrotation Xrotation
							End Site
							{
								OFFSET 0.000000 0.000000 0.000000
							}
						}
					}
				}
				JOINT LeftShoulder
				{
					OFFSET 0.000000 0.000000 0.000000
					CHANNELS 3 Zrotation Yrotation Xrotation
					JOINT LeftArm
					{
						OFFSET 2.700000 1.550000 -0.730000
						CHANNELS 3 Zrotation Yrotation Xrotation
						JOINT LeftForeArm
						{
							OFFSET 5.450000 0.000000 0.000000
							CHANNELS 3 Zrotation Yrotation Xrotation
							JOINT LeftHand
							{
								OFFSET 3.450000 0.000000 0.000000
								CHANNELS 3 Zrotation Yrotation Xrotation
								JOINT LeftHandIndex1
								{
									OFFSET 0.750000 0.000000 0.000000
									CHANNELS 3 Zrotation Yrotation Xrotation
									End Site
									{
										OFFSET 0.000000 0.000000 0.000000
									}
								}
							}
						}
					}
				}
				JOINT RightShoulder
				{
					OFFSET 0.000000 0.000000 0.000000
					CHANNELS 3 Zrotation Yrotation Xrotation
					JOINT RightArm
					{
						OFFSET -2.700000 1.550000 -0.730000
						CHANNELS 3 Zrotation Yrotation Xrotation
						JOINT RightForeArm
						{
							OFFSET -5.450000 0.000000 0.000000
							CHANNELS 3 Zrotation Yrotation Xrotation
							JOINT RightHand
							{
								OFFSET -3.450000 0.000000 0.000000
								CHANNELS 3 Zrotation Yrotation Xrotation
								JOINT RightHandIndex1
								{
									OFFSET -0.750000 0.000000 0.000000
									CHANNELS 3 Zrotation Yrotation Xrotation
									End Site
									{
										OFFSET 0.000000 0.000000 0.000000
									}
								}
							}
						}
					}
				}
			}
		}
	}
}
MOTION
Frames: 12
Frame Time: 0.016667
0.596580 13.081060 -2.051630 -46.387569 -60.299111 -3.350299 -16.611334 9.084407 6.769961 12.965733 -9.922601 -75.334893 46.027264 -11.321760 122.450919 3.281262 18.600207 -1.310862 0.914110 0.881520 1.147140 17.925629 -5.604007 4.161080 -56.052786 18.771040 -21.124181 41.910435 -43.987192 65.951707 -3.210429 -13.749902 -0.481421 0.291960 -0.584620 0.307190 -2.476096 -3.604111 -10.861237 -9.631853 15.259918 65.934280 -6.237437 14.729244 28.475604 7.399711 6.419155 -23.797613 6.289873 1.601298 68.078418 2.470110 5.758120 -25.165460 -16.154781 -37.404408 15.547395 -24.879868 0.024456 -1.214216 10.722135 10.590267 -0.058763 -3.502915 2.695455 0.898890 -0.500100 0.861120 -0.157060 -2.022421 44.903582 9.981470 14.495127 4.364840 -38.527095 -69.728257 28.375938 -24.578196 3.948662 -1.979948 0.194060 0.029830 -0.358880 -0.198340 
0.467300 13.029430 -1.995010 -45.001320 -61.976856 -6.095983 -16.664629 9.547472 7.048363 20.660410 -9.542390 -70.980247 46.315763 -10.870387 129.294679 3.219936 18.202089 -1.214973 0.935870 0.898500 1.201090 17.926727 -5.732407 3.161116 -51.407156 14.238123 -24.115543 20.067519 -33.042313 77.033111 -3.070305 -14.005767 -0.608102 0.302790 -0.640170 0.291370 -1.659293 -4.778092 -10.823161 -12.445903 17.221768 65.134684 0.542620 14.173185 28.247518 5.522402 6.320812 -23.562954 6.278408 0.584218 72.029418 1.757820 5.864030 -27.771690 -16.311380 -37.505867 15.156220 -28.838859 -0.963055 -2.581340 16.439610 8.604703 -0.060938 -3.395390 2.789689 1.000910 -0.550510 0.922790 -0.183080 2.625352 44.800774 11.962760 19.432149 3.313094 -34.826918 -62.430843 26.334435 -21.769353 3.551477 -1.937635 0.166190 0.075310 -0.352600 -0.244650 
0.382410 13.014690 -1.888180 -44.193189 -64.873296 -9.153357 -16.418421 10.511759 7.145217 25.602791 -10.432874 -63.701089 45.913333 -10.003470 131.914574 3.179348 17.826182 -1.148874 1.024040 1.013880 1.283110 18.069117 -6.863350 1.693768 -42.510200 7.960291 -27.480562 0.215256 -14.974599 74.738227 -2.288453 -11.187625 0.035838 0.347300 -0.704730 0.311560 -1.032022 -5.388583 -10.369989 -13.927274 17.777156 64.921994 3.541893 14.079436 31.387343 4.639385 6.761577 -26.508821 7.496909 -0.783602 77.074844 1.483210 5.911270 -28.477130 -18.184831 -40.050819 14.579507 -26.876405 0.813632 -7.681400 27.433366 3.996088 -1.962269 -3.424612 2.972993 1.021060 -0.584810 1.001090 -0.181940 6.736480 47.377404 13.531915 24.481170 1.503785 -32.862374 -53.471124 19.754974 -16.259023 3.557925 -2.041405 0.219300 0.076870 -0.393870 -0.246100 
0.317200 12.882790 -1.782800 -43.824241 -66.348724 -11.363751 -16.191925 10.771128 7.265794 29.752717 -13.032449 -59.201215 43.499210 -6.425395 135.302806 3.075284 17.170725 -1.014405 1.122850 1.166310 1.298960 18.210719 -7.528963 1.164525 -37.073841 2.494116 -30.376368 -10.670555 -5.650263 64.809068 -1.836061 -8.983119 0.654436 0.422920 -0.722400 0.299340 -1.054183 -5.276551 -10.166991 -10.809858 14.420414 67.237402 3.622532 13.080386 33.227149 3.610915 5.879160 -27.758978 4.449137 -0.022970 79.483574 3.606090 5.551910 -29.686160 -17.264182 -41.073850 13.169805 -22.205428 -1.284374 -11.011764 32.884238 0.615884 -4.146869 -3.478097 3.089647 1.024900 -0.620910 1.051090 -0.126600 8.174017 47.569438 14.730097 30.412716 1.669758 -23.648941 -41.480804 5.198053 -7.199022 3.410550 -1.906426 0.257730 0.110830 -0.448000 -0.211600 
0.271340 12.743100 -1.712180 -44.253851 -69.846633 -14.633404 -15.880902 11.190712 7.175816 33.251774 -13.990810 -50.684884 37.247253 9.457314 141.386681 2.900515 16.213133 -0.787961 1.119090 1.151670 1.266210 18.415693 -7.873610 0.839203 -31.686243 -0.437026 -31.603050 -17.369644 -0.809874 52.266230 -1.484264 -7.043141 1.252625 0.407800 -0.717390 0.281180 -0.707729 -5.781239 -10.029561 -8.996750 13.280553 72.517174 4.900051 13.382588 31.242139 2.890598 4.796610 -27.503000 0.530266 0.999370 80.610308 6.210630 4.928160 -30.892590 -17.785486 -40.587071 11.308064 -14.153752 -3.737183 -13.761318 35.966548 -5.638873 -6.537000 -3.444276 3.158830 1.063630 -0.664750 1.054460 -0.104670 11.097925 46.811022 15.394009 32.253724 1.884504 -16.312238 -31.735814 -2.435056 -2.074658 3.397779 -1.578111 0.245190 0.120080 -0.449710 -0.202810 
0.285320 12.534230 -1.717090 -28.398715 -74.932976 -31.245680 -15.338321 10.300748 7.043788 37.411327 -14.346017 -44.070164 29.602028 38.650613 148.466602 4.226205 20.308708 -1.378730 0.902700 0.874170 1.099630 19.117192 -7.330979 1.238356 -30.362374 -2.850072 -38.744268 -17.751553 -0.738459 42.751942 -1.152075 -5.798720 1.701820 0.190670 -0.611330 0.324060 0.426614 -7.257796 -10.638333 -15.194127 19.672476 76.561381 9.240624 15.837954 22.933210 1.577543 4.034418 -24.878269 -0.027946 0.438605 76.850150 6.470250 5.332440 -25.996930 -19.371436 -38.251198 8.808273 -6.872283 -6.062837 -15.005574 36.531284 -14.361180 -8.155852 -3.379735 3.179060 0.957620 -0.585330 0.940830 -0.103630 17.565440 44.171721 16.481067 33.497477 1.410349 -6.743622 -15.538552 -5.278578 1.066916 3.189703 -1.110797 0.258180 -0.008090 -0.394160 -0.157350 
0.242150 12.306540 -1.671950 -26.141887 -76.376058 -32.888023 -15.425818 8.853645 8.179733 46.219029 -16.851201 -42.205521 14.520074 69.362138 146.527750 6.932541 30.081005 -2.212721 0.892130 0.895740 1.029300 19.391937 -6.538693 1.221495 -25.559611 -3.792907 -43.991578 -16.844261 -1.390685 39.706483 -1.047113 -5.304911 1.953137 0.143700 -0.571110 0.314090 0.953507 -7.698367 -11.296053 -14.952281 17.899350 79.129677 10.809535 15.112226 18.588902 0.949459 3.871530 -23.739304 0.110195 -0.205113 74.298799 6.049250 5.165310 -21.010680 -18.430177 -37.996974 8.207150 -0.313429 -8.239332 -13.808912 33.554686 -11.157250 -5.965908 -3.408671 3.212661 0.814780 -0.548930 0.913500 0.021180 18.710008 42.327864 16.155071 35.481001 0.563446 -4.401789 -5.927752 -1.927878 0.683469 3.014783 -1.051134 0.327120 -0.071120 -0.509570 -0.059910 
0.216720 12.078720 -1.521300 -18.410417 -79.217777 -39.595776 -15.179397 6.413104 10.092663 53.087524 -19.160420 -40.198529 -12.825935 88.224138 122.604926 6.203423 26.376929 -1.880079 0.858420 0.876120 1.009680 19.730334 -5.837623 1.437303 -20.162390 -2.739056 -51.136934 -13.185231 -2.721022 38.050458 -0.929897 -4.832612 2.096272 0.097930 -0.549640 0.375590 0.830204 -7.074293 -12.033089 -12.056545 14.010672 80.930866 10.340682 12.180749 18.762576 -0.790340 4.158738 -22.531444 2.073177 -1.581034 71.415209 5.637810 5.340720 -21.840270 -14.421555 -38.597729 7.817670 3.124185 -8.592640 -14.929742 34.743950 -10.863780 -6.080464 -3.568972 3.279063 0.742310 -0.515910 0.902400 -0.020540 17.132736 40.966486 15.428859 40.394363 2.079623 -6.998502 -15.382157 2.422405 0.032023 3.003568 -1.406270 0.396190 -0.120950 -0.467050 -0.025960 
0.189270 11.867920 -1.331330 -7.084644 -82.089555 -49.775804 -15.263215 7.001898 8.909362 50.809016 -13.983078 -43.540392 123.625380 87.936538 -100.023450 3.508959 15.051595 -0.134449 0.861350 0.882040 0.984820 19.417789 -6.304532 2.570014 -14.356410 -0.485094 -58.675215 -10.002807 -4.030201 39.621182 -0.888642 -4.949724 2.033210 0.136340 -0.516180 0.417770 -0.216579 -6.672612 -11.529085 -8.937463 9.515829 80.264921 10.337936 8.818595 18.680286 -2.099417 4.624872 -18.999396 5.038977 -2.028280 66.410790 3.514550 7.097160 -21.526880 -11.362286 -36.733013 6.035345 2.698578 -8.835012 -18.588521 45.411590 -23.928475 -12.431430 -3.527374 3.388566 0.682350 -0.438110 0.843250 -0.018670 15.443895 37.685411 14.588471 41.223923 6.380609 -4.374708 -13.889044 1.154556 0.099282 2.956323 -1.454351 0.391400 -0.174230 -0.447840 -0.038230 
0.237740 11.724610 -1.141390 28.541974 -83.965685 -82.656462 -16.010043 9.792457 5.512134 40.059930 -0.268593 -51.523224 -126.462481 72.552658 11.422079 3.013670 12.798951 0.418105 0.801260 0.792800 0.900400 18.363921 -6.873777 4.406094 -9.022212 4.361252 -66.745786 -7.048804 -5.266163 42.554936 -0.859005 -5.243291 1.930786 0.121610 -0.412240 0.463760 -1.972436 -6.282105 -10.420479 -4.721592 5.613305 78.109544 11.217271 5.492882 19.419064 -3.104792 3.148967 -17.439393 2.182275 -0.126467 61.992066 2.128820 5.841960 -18.026720 -7.166349 -34.779499 5.163176 -0.303709 -12.582189 -18.239308 51.073734 -23.039551 -14.355674 -3.626048 3.446659 0.575550 -0.334250 0.723000 -0.030870 13.173470 35.398578 13.916337 38.794881 9.623650 -1.057039 -7.503795 -1.403220 0.382480 2.981571 -1.362904 0.389200 -0.214350 -0.376530 -0.012290 
0.274380 11.696110 -1.026490 37.512131 -83.329847 -87.582615 -16.553382 5.036303 9.459081 55.900212 -2.838674 -47.255633 -114.621371 1.111375 -2.911884 2.104148 8.458670 1.561645 0.738480 0.752820 0.826740 18.450134 -5.510456 3.670720 -6.424558 5.622640 -71.683392 -3.724484 -7.948519 47.704189 -0.983695 -6.393822 1.593080 0.036210 -0.360350 0.504750 -1.815747 -6.766505 -12.208678 -4.079311 1.283508 78.453205 12.574543 2.091124 18.819274 -3.097674 2.059905 -17.314729 0.045838 1.181224 59.120171 -1.615620 5.561380 -12.815800 -6.365877 -34.428346 4.929689 1.397740 -12.799491 -18.593326 54.121173 -23.622519 -14.881034 -3.767396 3.585627 0.375030 -0.258320 0.667220 0.015580 12.652829 34.101379 13.618569 35.011020 12.555995 0.300448 -7.877374 -2.136809 0.257882 3.140385 -1.446339 0.494470 -0.306930 -0.415110 0.089680 
0.343940 11.782530 -0.911040 88.998419 -80.437020 -134.777388 -17.528759 4.775295 10.177223 61.970882 -3.907981 -44.135739 -99.584994 -15.033718 -11.208889 1.728360 7.250037 1.953693 0.779470 0.826870 0.797000 17.653460 -4.278556 3.920123 3.380344 12.447153 -75.297578 -8.586163 -5.832699 52.059627 -1.129322 -6.683200 1.547895 0.124840 -0.250030 0.476880 -3.118271 -5.016155 -12.558359 -0.736987 -3.874506 76.418551 9.002041 1.259328 20.736675 -3.526000 0.175368 -16.682942 -4.071762 2.902190 58.511214 -0.751830 4.932780 -12.087200 -3.250279 -34.698448 3.943850 0.006200 -15.625149 -19.513547 56.624457 -26.995460 -18.197390 -3.741175 3.524048 0.323240 -0.206010 0.624140 0.098640 10.615165 34.699923 13.632007 34.512914 15.229772 -0.065475 -12.419833 -1.889883 -0.177407 3.122624 -1.582351 0.455020 -0.194900 -0.438350 0.137280 
